# xmcd
#
# Track frame offsets: 
#        150
#        16125
#        31305
#        51470
#        67215
#        88312
#        104852
#        120862
#        138897
#        157777
#        174312
#        193560
#        223700
#
# Disc length: 4385 seconds
#
# Revision: 7
# Processed by: cddbd v1.5.2PL0 Copyright (c) Steve Scherf et al.
# Submitted via: ExactAudioCopyFreeDBPlugin 1.0
#
DISCID=b3111f0d
DTITLE=Reba McEntire - So Good Together
DYEAR=1999
DGENRE=Country
TTITLE0=We're So Good Together
TTITLE1='Til I Said It To You
TTITLE2=I'll Be
TTITLE3=What Do You Say
TTITLE4=Roses
TTITLE5=I'm Not Your Girl
TTITLE6=She Wasn't Good Enough for Him
TTITLE7=Nobody Dies From A Broken Heart
TTITLE8=Back Before The War
TTITLE9=When You're Not Trying To
TTITLE10=Where You End And I Begin
TTITLE11=We're All Alone
TTITLE12=multimedia track
EXTD=
EXTT0=
EXTT1=
EXTT2=
EXTT3=
EXTT4=
EXTT5=
EXTT6=
EXTT7=
EXTT8=
EXTT9=
EXTT10=
EXTT11=
EXTT12=
PLAYORDER=
